HIERARCHY
ROOT Hips
{
	OFFSET 0.000000 0.000000 0.000000
	CHANNELS 6 Xposition Yposition Zposition Xrotation Yrotation Zrotation
	JOINT LeftUpLeg_virtual
	{
		OFFSET 0.000000 0.000000 0.000000
		CHANNELS 3 Xrotation Yrotation Zrotation
		JOINT LeftUpLeg
		{
			OFFSET 15.427100 -6.655098 0.678600
			CHANNELS 3 Xrotation Yrotation Zrotation
			JOINT LeftLeg
			{
				OFFSET 4.081073 -39.591068 13.024000
				CHANNELS 3 Xrotation Yrotation Zrotation
				JOINT LeftFoot
				{
					OFFSET -4.081074 -37.707932 -15.979700
					CHANNELS 3 Xrotation Yrotation Zrotation
					JOINT LeftToeBase
					{
						OFFSET 5.346399 -15.068900 20.645000
						CHANNELS 3 Xrotation Yrotation Zrotation
						JOINT LeftToe_End
						{
							OFFSET 2.754700 0.931300 11.300900
							CHANNELS 3 Xrotation Yrotation Zrotation
							End Site
							{
								OFFSET 0 0 0
							}
						}
					}
				}
			}
		}
	}
	JOINT RightUpLeg_virtual
	{
		OFFSET 0.000000 0.000000 0.000000
		CHANNELS 3 Xrotation Yrotation Zrotation
		JOINT RightUpLeg
		{
			OFFSET -15.569500 -6.655098 0.678600
			CHANNELS 3 Xrotation Yrotation Zrotation
			JOINT RightLeg
			{
				OFFSET -4.081825 -39.591045 13.023800
				CHANNELS 3 Xrotation Yrotation Zrotation
				JOINT RightFoot
				{
					OFFSET 4.081824 -37.707954 -15.979600
					CHANNELS 3 Xrotation Yrotation Zrotation
					JOINT RightToeBase
					{
						OFFSET -5.346400 -15.068900 20.645000
						CHANNELS 3 Xrotation Yrotation Zrotation
						JOINT RightToe_End
						{
							OFFSET -2.754700 0.931300 11.300900
							CHANNELS 3 Xrotation Yrotation Zrotation
							End Site
							{
								OFFSET 0 0 0
							}
						}
					}
				}
			}
		}
	}
	JOINT Spine_virtual
	{
		OFFSET 0.000000 0.000000 0.000000
		CHANNELS 3 Xrotation Yrotation Zrotation
		JOINT Spine
		{
			OFFSET -0.279200 12.230698 -2.892100
			CHANNELS 3 Xrotation Yrotation Zrotation
			JOINT Spine1
			{
				OFFSET -0.232667 10.192268 -1.242267
				CHANNELS 3 Xrotation Yrotation Zrotation
				JOINT Spine1_split
				{
					OFFSET -0.232667 10.192268 -1.242267
					CHANNELS 3 Xrotation Yrotation Zrotation
					JOINT Spine2
					{
						OFFSET -0.232667 10.192268 -1.242267
						CHANNELS 3 Xrotation Yrotation Zrotation
						JOINT Neck_virtual
						{
							OFFSET 0.000000 0.000000 0.000000
							CHANNELS 3 Xrotation Yrotation Zrotation
							JOINT Neck
							{
								OFFSET -0.418800 17.814194 8.416900
								CHANNELS 3 Xrotation Yrotation Zrotation
								JOINT Head
								{
									OFFSET 0.000000 7.031097 3.806800
									CHANNELS 3 Xrotation Yrotation Zrotation
									JOINT HeadTop_End
									{
										OFFSET 0.000000 24.646606 12.978600
										CHANNELS 3 Xrotation Yrotation Zrotation
										End Site
										{
											OFFSET 0 0 0
										}
									}
								}
							}
						}
						JOINT LeftShoulder_virtual
						{
							OFFSET 0.000000 0.000000 0.000000
							CHANNELS 3 Xrotation Yrotation Zrotation
							JOINT LeftShoulder
							{
								OFFSET 8.476499 7.247704 -3.868750
								CHANNELS 3 Xrotation Yrotation Zrotation
								JOINT LeftShoulder_split
								{
									OFFSET 8.476499 7.247704 -3.868750
									CHANNELS 3 Xrotation Yrotation Zrotation
									JOINT LeftArm
									{
										OFFSET 9.308998 -2.777710 0.208600
										CHANNELS 3 Xrotation Yrotation Zrotation
										JOINT LeftForeArm
										{
											OFFSET 29.972298 0.000000 0.000000
											CHANNELS 3 Xrotation Yrotation Zrotation
											JOINT LeftHand
											{
												OFFSET 26.026505 0.000000 0.000000
												CHANNELS 3 Xrotation Yrotation Zrotation
												End Site
												{
													OFFSET 0 0 0
												}
											}
										}
									}
								}
							}
						}
						JOINT RightShoulder_virtual
						{
							OFFSET 0.000000 0.000000 0.000000
							CHANNELS 3 Xrotation Yrotation Zrotation
							JOINT RightShoulder
							{
								OFFSET -7.570500 7.247704 -3.868750
								CHANNELS 3 Xrotation Yrotation Zrotation
								JOINT RightShoulder_split
								{
									OFFSET -7.570500 7.247704 -3.868750
									CHANNELS 3 Xrotation Yrotation Zrotation
									JOINT RightArm
									{
										OFFSET -9.308998 -2.777710 0.208500
										CHANNELS 3 Xrotation Yrotation Zrotation
										JOINT RightForeArm
										{
											OFFSET -29.972300 0.000000 0.000000
											CHANNELS 3 Xrotation Yrotation Zrotation
											JOINT RightHand
											{
												OFFSET -26.026505 0.000000 0.000000
												CHANNELS 3 Xrotation Yrotation Zrotation
												End Site
												{
													OFFSET 0 0 0
												}
											}
										}
									}
								}
							}
						}
					}
				}
			}
		}
	}
}
MOTION
Frames: 11
Frame Time: 0.03333333
0.301536 83.232933 -0.080021 0.000000 0.000000 0.000000 -3.872699 -16.085350 -2.056804 -32.141409 17.387377 13.423268 44.375613 -0.698636 10.117924 -14.354063 3.206400 -9.426147 -0.710310 -0.377878 -1.447215 0.000000 0.000000 0.000000 -4.529119 -14.681741 -1.801565 -25.509307 -22.853229 -14.062654 44.044021 -4.462546 -16.024619 -13.895750 -2.421481 13.458313 -3.221853 1.227478 0.768813 0.000000 0.000000 0.000000 -2.952576 -17.626649 -2.034636 4.308638 3.083032 2.325653 2.832889 2.031694 -0.047083 1.673443 -0.459708 0.122096 0.000000 0.000000 0.000000 2.881789 1.799107 -0.041596 1.040913 -0.177274 4.533252 0.259776 9.665696 1.393168 0.000000 0.000000 0.000000 2.750294 1.973404 -0.221429 -0.021861 -4.055133 17.246050 -1.780598 -0.112329 -0.528314 -66.853413 -43.246705 -62.482051 -0.938490 -34.194341 0.743376 0.000000 0.000000 0.000000 3.192289 1.925016 -0.092931 -0.357208 -3.392611 -5.142253 0.735067 0.726465 0.636820 -104.169906 58.826862 95.705499 -1.539075 29.822843 0.431733 0.000000 0.000000 0.000000 
0.281820 83.179420 -0.089493 0.000000 0.000000 0.000000 -3.796009 -16.114798 -2.024108 -32.209437 17.433370 13.325909 44.312273 -0.704527 10.150608 -14.298350 3.152730 -9.462565 -0.734578 -0.357867 -1.458960 0.000000 0.000000 0.000000 -4.511231 -14.630221 -1.773961 -25.491816 -22.871648 -14.088767 44.330510 -4.523563 -15.962868 -14.129769 -2.434086 13.468637 -2.723099 1.213149 0.703271 0.000000 0.000000 0.000000 -2.944605 -17.478107 -2.103836 4.310910 3.053199 2.263833 2.849833 2.023095 -0.077882 1.559978 -0.141012 -0.009720 0.000000 0.000000 0.000000 2.801832 1.777059 -0.066026 0.893522 -0.297911 4.564479 0.465137 9.708978 1.373493 0.000000 0.000000 0.000000 2.760602 1.952847 -0.234918 -0.075650 -3.909981 17.169882 -1.786875 -0.107187 -0.416925 -66.794196 -43.460511 -62.579266 -0.893930 -34.491953 0.801939 0.000000 0.000000 0.000000 3.256984 1.926755 -0.110627 -0.335985 -3.293791 -5.239325 0.741622 0.691432 0.607448 -104.152660 59.345390 95.872312 -1.407499 29.551592 0.397191 0.000000 0.000000 0.000000 
0.276754 83.125732 -0.099339 0.000000 0.000000 0.000000 -3.704121 -16.209470 -1.954121 -32.314885 17.543624 13.174489 44.258051 -0.701914 10.265776 -14.099922 3.038547 -9.621548 -0.691645 -0.322237 -1.503771 0.000000 0.000000 0.000000 -4.480962 -14.761261 -1.712512 -25.540191 -22.886017 -14.101207 44.498167 -4.619265 -15.894847 -14.149452 -2.517700 13.497222 -2.590264 1.151771 0.621598 0.000000 0.000000 0.000000 -2.963465 -17.312074 -2.154567 4.235980 2.986214 2.150670 2.803528 2.052737 -0.121081 1.320988 -0.128337 -0.131430 0.000000 0.000000 0.000000 2.753433 1.799822 -0.113410 0.787300 -0.500447 4.764566 0.890957 9.555729 1.534926 0.000000 0.000000 0.000000 2.758317 1.974212 -0.270238 -0.158267 -3.618677 17.001516 -1.704714 -0.093078 -0.405860 -66.603688 -43.947377 -62.618894 -0.927905 -34.971354 0.751666 0.000000 0.000000 0.000000 3.288808 1.961355 -0.140906 -0.267151 -3.066490 -5.390929 0.553095 0.630110 0.401414 -103.915673 60.021052 96.177321 -1.237051 29.344644 0.321208 0.000000 0.000000 0.000000 
0.280748 83.100113 -0.099434 0.000000 0.000000 0.000000 -3.603052 -16.404067 -1.871519 -32.431777 17.715636 13.057322 44.170741 -0.673808 10.431978 -13.849011 2.910944 -9.822671 -0.600869 -0.271362 -1.565096 0.000000 0.000000 0.000000 -4.380918 -15.067817 -1.630878 -25.608420 -22.863415 -14.043909 44.478547 -4.711230 -15.849437 -13.943653 -2.622627 13.505938 -2.838901 1.052548 0.593265 0.000000 0.000000 0.000000 -2.984321 -17.257470 -2.169909 4.083781 2.884717 2.028820 2.700766 2.094332 -0.170521 1.016150 -0.386793 -0.087137 0.000000 0.000000 0.000000 2.730008 1.851046 -0.170640 0.725627 -0.739524 5.081374 1.389847 9.315175 1.822855 0.000000 0.000000 0.000000 2.729914 2.020663 -0.322734 -0.256544 -3.225805 16.726881 -1.509738 -0.110614 -0.482256 -66.350507 -44.709732 -62.719455 -0.995592 -35.403452 0.598367 0.000000 0.000000 0.000000 3.279716 2.008877 -0.177547 -0.158539 -2.758282 -5.601144 0.354068 0.530951 0.197043 -103.496702 60.676546 96.552299 -1.057781 29.298687 0.221214 0.000000 0.000000 0.000000 
0.280540 83.095840 -0.085068 0.000000 0.000000 0.000000 -3.524539 -16.706183 -1.806464 -32.557869 17.905939 13.004886 44.085777 -0.608242 10.620566 -13.572102 2.828454 -9.968330 -0.482446 -0.207456 -1.624232 0.000000 0.000000 0.000000 -4.191530 -15.460516 -1.556335 -25.656728 -22.763564 -13.878592 44.322354 -4.826316 -15.840996 -13.660317 -2.725022 13.316886 -2.967768 0.936344 0.675360 0.000000 0.000000 0.000000 -2.903725 -17.361419 -2.139604 3.881111 2.774510 1.928089 2.564991 2.126143 -0.216268 0.907021 -0.708988 0.033541 0.000000 0.000000 0.000000 2.713154 1.895177 -0.222398 0.687738 -0.966801 5.390564 1.772324 9.089750 2.153546 0.000000 0.000000 0.000000 2.666690 2.062374 -0.377579 -0.367800 -2.781069 16.400532 -1.422954 -0.128898 -0.639951 -66.136182 -45.682002 -62.922694 -1.028029 -35.713509 0.424385 0.000000 0.000000 0.000000 3.219508 2.044424 -0.210905 -0.030456 -2.412419 -5.855335 0.174281 0.393596 0.001920 -103.056838 61.156715 96.892073 -0.912833 29.414275 0.172870 0.000000 0.000000 0.000000 
0.296751 83.110359 -0.095562 0.000000 0.000000 0.000000 -3.492153 -17.077281 -1.776958 -32.638390 18.083349 13.003034 44.058064 -0.497223 10.798713 -13.332575 2.819212 -9.974375 -0.359131 -0.143411 -1.683142 0.000000 0.000000 0.000000 -3.990511 -15.850813 -1.513863 -25.783143 -22.608090 -13.670801 44.164017 -4.990418 -15.866844 -13.394662 -2.801971 12.924689 -2.788738 0.828809 0.855821 0.000000 0.000000 0.000000 -2.739286 -17.651376 -2.079732 3.709629 2.673699 1.852696 2.414558 2.130715 -0.258215 1.054989 -1.002164 0.200099 0.000000 0.000000 0.000000 2.690859 1.914992 -0.251310 0.645934 -1.155224 5.613899 1.934137 8.964055 2.433955 0.000000 0.000000 0.000000 2.572646 2.072620 -0.423852 -0.484292 -2.312181 16.058842 -1.322550 0.016243 -0.820342 -66.077374 -46.813321 -63.273711 -0.936714 -35.922676 0.305325 0.000000 0.000000 0.000000 3.111384 2.051333 -0.233750 0.086653 -2.103611 -6.181687 0.094061 0.350744 -0.160065 -102.579264 61.313693 96.946291 -0.813591 29.380014 0.200055 0.000000 0.000000 0.000000 
0.331941 83.135132 -0.193077 0.000000 0.000000 0.000000 -3.500989 -17.390529 -1.773937 -32.706952 18.274946 13.021567 44.135754 -0.318892 10.929421 -13.195666 2.880639 -9.822996 -0.268525 -0.088465 -1.730704 0.000000 0.000000 0.000000 -3.834491 -16.177496 -1.497334 -26.045934 -22.450331 -13.519576 44.149216 -5.150701 -15.925805 -13.190303 -2.797576 12.569508 -2.516287 0.752028 1.021742 0.000000 0.000000 0.000000 -2.504466 -18.061380 -2.016834 3.622420 2.632812 1.801476 2.271167 2.118172 -0.284833 1.159019 -1.180692 0.326037 0.000000 0.000000 0.000000 2.648564 1.907710 -0.253050 0.583643 -1.275580 5.688471 1.918426 8.973449 2.596392 0.000000 0.000000 0.000000 2.472393 2.060837 -0.450315 -0.589739 -1.850503 15.741421 -1.162423 0.318682 -1.020591 -66.104142 -48.041628 -63.733820 -0.621858 -35.977803 0.321302 0.000000 0.000000 0.000000 2.962865 2.036382 -0.244772 0.150218 -1.869219 -6.561380 0.203413 0.524787 -0.244452 -101.989211 61.109798 96.574626 -0.745126 28.984096 0.290343 0.000000 0.000000 0.000000 
0.371462 83.140579 -0.306751 0.000000 0.000000 0.000000 -3.540370 -17.540068 -1.789499 -32.810224 18.437042 13.018059 44.315753 -0.139787 11.010728 -13.106046 2.955767 -9.648164 -0.298441 -0.048692 -1.745411 0.000000 0.000000 0.000000 -3.769698 -16.369144 -1.494746 -26.433527 -22.342971 -13.484034 44.384290 -5.265366 -16.001311 -12.994326 -2.690902 12.495609 -2.408316 0.716828 1.059188 0.000000 0.000000 0.000000 -2.212799 -18.453038 -1.950053 3.630752 2.679128 1.757949 2.156333 2.108646 -0.290071 1.245907 -1.246691 0.312378 0.000000 0.000000 0.000000 2.594394 1.889145 -0.235508 0.527391 -1.336732 5.589340 1.858630 9.064166 2.638983 0.000000 0.000000 0.000000 2.409946 2.039997 -0.450538 -0.664867 -1.463058 15.517864 -0.980601 0.726213 -1.143230 -66.019249 -49.290999 -64.148536 -0.128835 -35.791359 0.467657 0.000000 0.000000 0.000000 2.819889 2.019267 -0.242883 0.156253 -1.732750 -6.933256 0.360799 0.783661 -0.196557 -101.433548 60.667093 95.996533 -0.699911 28.306531 0.412114 0.000000 0.000000 0.000000 
0.411665 83.134285 -0.414322 0.000000 0.000000 0.000000 -3.601239 -17.491379 -1.809340 -32.925692 18.546615 12.983840 44.497101 -0.043328 11.051868 -13.049955 2.981320 -9.612854 -0.432242 -0.035260 -1.720663 0.000000 0.000000 0.000000 -3.828808 -16.388120 -1.495913 -26.852180 -22.385597 -13.578428 44.775650 -5.313635 -16.060227 -12.856514 -2.533341 12.798604 -2.559090 0.724223 0.931633 0.000000 0.000000 0.000000 -1.993704 -18.734528 -1.896126 3.711088 2.804435 1.717881 2.085707 2.123525 -0.274018 1.264070 -1.323833 0.280932 0.000000 0.000000 0.000000 2.528536 1.890128 -0.212192 0.596447 -1.330846 5.370630 1.967346 9.145635 2.628975 0.000000 0.000000 0.000000 2.433955 2.031219 -0.433072 -0.679731 -1.240343 15.405640 -0.708501 1.221663 -1.141587 -65.967497 -50.549079 -64.686638 0.344847 -35.208546 0.607511 0.000000 0.000000 0.000000 2.750937 2.027834 -0.244879 0.099503 -1.715601 -7.289573 0.605446 1.059065 -0.072508 -100.944711 60.236531 95.393919 -0.667683 27.613666 0.480904 0.000000 0.000000 0.000000 
0.450803 83.104332 -0.532742 0.000000 0.000000 0.000000 -3.686071 -17.302541 -1.816664 -33.019867 18.579132 12.933681 44.557285 -0.069749 11.061461 -13.028362 2.937580 -9.773383 -0.527589 -0.055210 -1.663862 0.000000 0.000000 0.000000 -4.016011 -16.256351 -1.499125 -27.054161 -22.577723 -13.704664 45.115073 -5.327650 -16.113007 -12.966251 -2.423153 13.218057 -2.808540 0.772492 0.694865 0.000000 0.000000 0.000000 -1.920483 -18.824358 -1.873721 3.782112 2.994710 1.688083 2.068031 2.173202 -0.243992 1.118043 -1.418279 0.224992 0.000000 0.000000 0.000000 2.459888 1.928250 -0.197254 0.900365 -1.241254 5.085078 2.446685 9.188134 2.635841 0.000000 0.000000 0.000000 2.552605 2.051475 -0.412027 -0.622160 -1.254097 15.430820 -0.519181 1.670970 -1.166057 -66.118444 -51.717742 -65.411902 0.620333 -34.160249 0.653601 0.000000 0.000000 0.000000 2.797556 2.067994 -0.262638 -0.012303 -1.760440 -7.616079 0.803983 1.267569 0.064067 -100.466694 60.142213 94.891818 -0.635245 27.303872 0.467847 0.000000 0.000000 0.000000 
0.488126 83.041634 -0.561592 0.000000 0.000000 0.000000 -3.837692 -17.109325 -1.813913 -32.938034 18.516334 12.843931 44.443426 -0.240077 11.062956 -13.096400 2.878748 -10.077617 -0.461634 -0.106192 -1.614771 0.000000 0.000000 0.000000 -4.289156 -16.065481 -1.507576 -26.864392 -22.866760 -13.753689 45.298026 -5.431251 -16.137702 -13.374986 -2.494110 13.276922 -2.872097 0.841863 0.493909 0.000000 0.000000 0.000000 -2.036569 -18.748803 -1.885060 3.775298 3.195499 1.676460 2.084449 2.237350 -0.219848 1.089407 -1.539707 0.178590 0.000000 0.000000 0.000000 2.414817 1.991211 -0.195297 1.420321 -1.067235 4.832562 3.297163 9.222575 2.707152 0.000000 0.000000 0.000000 2.696459 2.090774 -0.400420 -0.489002 -1.562331 15.571243 -0.424987 1.988060 -1.111185 -66.603552 -52.697928 -66.278148 0.570377 -32.884636 0.572500 0.000000 0.000000 0.000000 2.965989 2.128926 -0.291460 -0.133830 -1.760078 -7.935609 0.765253 1.208829 0.231506 -99.901953 60.618564 94.407988 -0.573112 27.536690 0.359373 0.000000 0.000000 0.000000 
